<svg width="112" height="49" viewBox="0 0 112 49" fill="none" xmlns="http://www.w3.org/2000/svg">
<g filter="url(#filter0_d_28_1936)">
<path d="M64.0991 26.2968C63.2724 26.2968 62.4802 26.3053 61.6898 26.2951C57.9989 26.2492 54.2952 26.3563 50.6188 26.1115C44.5821 25.7087 40.0518 20.858 40.0464 15.0743C40.041 9.17831 44.5549 4.29193 50.6478 3.92651C54.8935 3.67327 59.1645 3.78544 63.4247 3.74465C63.6495 3.74295 63.8761 3.83133 64.1317 3.88402C64.1317 5.59043 64.1317 7.25945 64.1317 9.07464C63.5896 9.10013 63.0893 9.14432 62.589 9.14432C59.5579 9.15112 56.5269 9.12563 53.4958 9.15452C49.9644 9.18851 47.2234 11.8331 47.2578 15.1202C47.2941 18.5398 49.7541 20.8461 53.4269 20.8852C54.9823 20.9022 56.5377 20.8886 58.3234 20.8886C58.3234 19.9623 58.4013 19.1346 58.2799 18.3324C58.24 18.0707 57.6943 17.7104 57.3571 17.6849C56.2368 17.6033 55.1038 17.6543 53.8747 17.6543C53.8747 15.8714 53.8747 14.2194 53.8747 12.4756C57.2629 12.4756 60.6384 12.4756 64.1009 12.4756C64.0991 17.0713 64.0991 21.5991 64.0991 26.2968Z" fill="white"/>
<path d="M87.2237 26.2091C80.8225 26.2091 74.3054 26.2091 67.7085 26.2091C67.7085 18.7172 67.7085 11.3171 67.7085 3.82178C74.3036 3.82178 80.8225 3.82178 87.5862 3.82178C86.9825 4.31806 86.4369 4.68688 85.9982 5.14577C85.2749 5.8987 84.4029 6.62274 83.9859 7.51673C83.2826 9.02259 82.1604 9.26733 80.6032 9.17215C78.7758 9.06168 76.9358 9.14666 75.0124 9.14666C75.0124 10.2497 75.0124 11.1998 75.0124 12.3504C77.2295 12.3504 79.423 12.3504 81.6365 12.3504C81.6365 14.1605 81.6365 15.7718 81.6365 17.5886C79.5137 17.5886 77.331 17.5886 75.036 17.5886C75.036 18.7682 75.036 19.7471 75.036 20.8876C77.2603 20.8876 79.4267 20.9216 81.5912 20.8706C82.4867 20.8485 83.0034 21.1034 83.5363 21.8258C84.6712 23.3639 86.0036 24.7797 87.2237 26.2091Z" fill="white"/>
<path d="M108.394 15.2675C108.09 21.5459 102.582 26.4578 96.0942 26.2402C89.2671 26.0091 83.9718 20.7845 84.2619 14.5656C84.5465 8.49457 90.2605 3.5266 96.6417 3.80194C103.376 4.09257 108.686 9.27299 108.394 15.2675ZM96.4368 9.14722C92.7804 9.12002 90.0901 11.542 90.0647 14.8868C90.0375 18.3846 92.6227 20.8762 96.2882 20.8864C99.8341 20.8966 102.64 18.3438 102.664 15.0857C102.689 11.7952 99.9392 9.17271 96.4368 9.14722Z" fill="white"/>
<path d="M20.5169 11.3424C21.0281 9.85698 21.5412 8.37152 22.1122 6.7178C23.6441 7.25487 25.165 7.78686 26.9633 8.41571C25.8575 10.7867 24.8423 13.0964 23.7021 15.3518C23.0803 16.5823 22.2717 17.7347 21.5013 18.8972C20.9756 19.6926 20.4662 20.5985 21.456 21.2223C22.415 21.8256 22.9298 20.8603 23.4555 20.2586C23.5734 20.1243 23.6984 19.9969 23.9015 19.7776C25.0653 20.3368 26.2255 20.8943 27.3857 21.4517C25.0581 25.9812 20.6674 26.7596 17.1161 23.2975C16.0555 23.8278 15.0385 24.5637 13.891 24.8544C12.2794 25.2623 10.5518 25.6073 8.91117 25.4985C6.35326 25.3319 4.56217 23.9349 3.70652 21.5979C1.48398 15.5286 4.81779 9.48307 9.34987 6.7093C13.2728 4.30775 17.4605 5.63174 19.3748 9.70232C19.6323 10.2479 19.8879 10.7935 20.1435 11.339C20.2667 11.3424 20.3918 11.3424 20.5169 11.3424ZM8.74076 17.1891C8.72807 20.4388 9.66711 21.3719 12.0528 21.1543C13.5828 21.0149 14.8808 20.347 15.722 19.2048C16.0918 18.7035 15.9939 17.8316 15.9341 17.1415C15.7909 15.4895 15.6893 13.8137 15.2706 12.2143C15.082 11.4937 14.2282 10.4756 13.5883 10.4162C12.729 10.3363 11.4237 10.8224 10.9433 11.4716C9.55109 13.3582 8.78971 15.5388 8.74076 17.1891Z" fill="white"/>
<path d="M27.8853 14.2919C30.8347 14.2919 33.6519 14.2732 36.469 14.3242C36.7192 14.3293 37.1543 14.7848 37.1506 15.0262C37.147 15.2675 36.7047 15.706 36.4473 15.7111C33.6718 15.7604 30.8964 15.7417 27.9795 15.7417C27.9487 15.259 27.9215 14.8545 27.8853 14.2919Z" fill="white"/>
<path d="M24.0617 44.7789C21.1322 44.7789 19.5992 43.4874 19.5992 40.6944V35.6649H22.2557V40.6314C22.2557 41.8284 22.8122 42.5634 24.0617 42.5634C25.3112 42.5634 25.8782 41.8284 25.8782 40.6314V35.6649H28.5242V40.6839C28.5242 43.4874 26.9912 44.7789 24.0617 44.7789ZM39.9126 44.4849H37.2036L34.6731 41.1774H34.5051L33.1926 42.5634V44.4849H30.5676V35.6649H33.1926V39.4029H33.3711L36.8256 35.6649H39.7761L36.1536 39.5919L39.9126 44.4849ZM50.4118 44.4849H47.8183L46.5373 42.0909H44.1223V44.4849H41.4868V35.6649H46.3903C48.8158 35.6649 50.1493 36.7359 50.1493 38.9619C50.1493 40.1694 49.5928 41.0304 48.7948 41.5449L50.4118 44.4849ZM44.1223 37.8594V40.1064H46.2223C47.0623 40.1064 47.5138 39.7074 47.5138 38.9829C47.5138 38.2584 47.0623 37.8594 46.2223 37.8594H44.1223ZM59.4031 44.4849L58.9621 43.2144H54.9931L54.5521 44.4849H51.8326L55.1296 35.6649H58.8256L62.1331 44.4849H59.4031ZM55.6756 41.2509H58.2796L57.2086 38.1429H56.7466L55.6756 41.2509ZM63.8665 44.4849V35.6649H66.502V44.4849H63.8665ZM68.5472 44.4849V35.6649H71.5817L74.8997 40.8204H75.1412V35.6649H77.7137V44.4849H74.7422L71.3507 39.3294H71.1197V44.4849H68.5472ZM79.7617 44.4849V35.6649H87.5317V37.7859H82.3972V39.1824H87.3427V40.9569H82.3972V42.3534H87.5317V44.4849H79.7617Z" fill="#F5F5F5"/>
</g>
<defs>
<filter id="filter0_d_28_1936" x="0.12" y="0.864629" width="111.886" height="47.5142" filterUnits="userSpaceOnUse" color-interpolation-filters="sRGB">
<feFlood flood-opacity="0" result="BackgroundImageFix"/>
<feColorMatrix in="SourceAlpha" type="matrix" values="0 0 0 0 0 0 0 0 0 0 0 0 0 0 0 0 0 0 127 0" result="hardAlpha"/>
<feOffset dx="0.36" dy="0.36"/>
<feGaussianBlur stdDeviation="1.62"/>
<feComposite in2="hardAlpha" operator="out"/>
<feColorMatrix type="matrix" values="0 0 0 0 0 0 0 0 0 0 0 0 0 0 0 0 0 0 0.4 0"/>
<feBlend mode="normal" in2="BackgroundImageFix" result="effect1_dropShadow_28_1936"/>
<feBlend mode="normal" in="SourceGraphic" in2="effect1_dropShadow_28_1936" result="shape"/>
</filter>
</defs>
</svg>
