<svg width="130" height="25" viewBox="0 0 130 25" fill="none" xmlns="http://www.w3.org/2000/svg">
<path id="Vector 1140" d="M2 13.8818C11.2446 15.2024 20.0316 19.761 29.474 21.2448C44.9001 23.6689 59.3695 22.4729 74.6412 19.4865C89.9309 16.4965 104.592 12.5233 119.479 8.05728C120.838 7.64965 127.776 6.71473 128.49 4.98019C128.921 3.93388 122.115 3.96055 121.677 3.93618C118.7 3.77079 115.816 3.05105 112.885 2.56248C112.28 2.46167 105.921 1.59395 110.138 2.23279C114.928 2.95856 119.337 4.98019 124.204 4.98019C128.367 4.98019 126.814 5.59474 124.204 8.71665C121.268 12.2288 115.742 17.8821 115.742 22.7833" stroke="white" stroke-width="3" stroke-linecap="round"/>
</svg>
