<svg width="106" height="24" viewBox="0 0 106 24" fill="none" xmlns="http://www.w3.org/2000/svg">
<g id="Group">
<path id="Vector" d="M61.0991 23.2968C60.2724 23.2968 59.4802 23.3053 58.6898 23.2951C54.9989 23.2492 51.2952 23.3563 47.6188 23.1115C41.5821 22.7087 37.0518 17.858 37.0464 12.0743C37.041 6.17831 41.5549 1.29193 47.6478 0.926513C51.8935 0.673271 56.1645 0.785444 60.4247 0.744653C60.6495 0.742953 60.8761 0.831335 61.1317 0.884022C61.1317 2.59043 61.1317 4.25945 61.1317 6.07464C60.5896 6.10013 60.0893 6.14432 59.589 6.14432C56.5579 6.15112 53.5269 6.12563 50.4958 6.15452C46.9644 6.18851 44.2234 8.83311 44.2578 12.1202C44.2941 15.5398 46.7541 17.8461 50.4269 17.8852C51.9823 17.9022 53.5377 17.8886 55.3234 17.8886C55.3234 16.9623 55.4013 16.1346 55.2799 15.3324C55.24 15.0707 54.6943 14.7104 54.3571 14.6849C53.2368 14.6033 52.1038 14.6543 50.8747 14.6543C50.8747 12.8714 50.8747 11.2194 50.8747 9.47556C54.2629 9.47556 57.6384 9.47556 61.1009 9.47556C61.0991 14.0713 61.0991 18.5991 61.0991 23.2968Z" fill="white"/>
<path id="Vector_2" d="M84.2237 23.2091C77.8225 23.2091 71.3054 23.2091 64.7085 23.2091C64.7085 15.7172 64.7085 8.31707 64.7085 0.821777C71.3036 0.821777 77.8225 0.821777 84.5862 0.821777C83.9825 1.31806 83.4369 1.68688 82.9982 2.14577C82.2749 2.8987 81.4029 3.62274 80.9859 4.51673C80.2826 6.02259 79.1604 6.26733 77.6032 6.17215C75.7758 6.06168 73.9358 6.14666 72.0124 6.14666C72.0124 7.24971 72.0124 8.19979 72.0124 9.35043C74.2295 9.35043 76.423 9.35043 78.6365 9.35043C78.6365 11.1605 78.6365 12.7718 78.6365 14.5886C76.5137 14.5886 74.331 14.5886 72.036 14.5886C72.036 15.7682 72.036 16.7471 72.036 17.8876C74.2603 17.8876 76.4267 17.9216 78.5912 17.8706C79.4867 17.8485 80.0034 18.1034 80.5363 18.8258C81.6712 20.3639 83.0036 21.7797 84.2237 23.2091Z" fill="white"/>
<path id="Vector_3" d="M105.394 12.2675C105.09 18.5459 99.5824 23.4578 93.0942 23.2402C86.2671 23.0091 80.9718 17.7845 81.2619 11.5656C81.5465 5.49457 87.2605 0.526599 93.6417 0.801936C100.376 1.09257 105.686 6.27299 105.394 12.2675ZM93.4368 6.14722C89.7804 6.12002 87.0901 8.54197 87.0647 11.8868C87.0375 15.3846 89.6227 17.8762 93.2882 17.8864C96.8341 17.8966 99.6404 15.3438 99.6639 12.0857C99.6893 8.79521 96.9392 6.17271 93.4368 6.14722Z" fill="white"/>
<path id="Vector_4" d="M17.5169 8.34244C18.0281 6.85698 18.5412 5.37152 19.1122 3.7178C20.6441 4.25487 22.165 4.78686 23.9633 5.41571C22.8575 7.78667 21.8423 10.0964 20.7021 12.3518C20.0803 13.5823 19.2717 14.7347 18.5013 15.8972C17.9756 16.6926 17.4662 17.5985 18.456 18.2223C19.415 18.8256 19.9298 17.8603 20.4555 17.2586C20.5734 17.1243 20.6984 16.9969 20.9015 16.7776C22.0653 17.3368 23.2255 17.8943 24.3857 18.4517C22.0581 22.9812 17.6674 23.7596 14.1161 20.2975C13.0555 20.8278 12.0385 21.5637 10.891 21.8544C9.2794 22.2623 7.55178 22.6073 5.91117 22.4985C3.35326 22.3319 1.56217 20.9349 0.706518 18.5979C-1.51602 12.5286 1.81779 6.48307 6.34987 3.7093C10.2728 1.30775 14.4605 2.63174 16.3748 6.70232C16.6323 7.24789 16.8879 7.79347 17.1435 8.33904C17.2667 8.34244 17.3918 8.34244 17.5169 8.34244ZM5.74076 14.1891C5.72807 17.4388 6.66711 18.3719 9.0528 18.1543C10.5828 18.0149 11.8808 17.347 12.722 16.2048C13.0918 15.7035 12.9939 14.8316 12.9341 14.1415C12.7909 12.4895 12.6893 10.8137 12.2706 9.21434C12.082 8.49371 11.2282 7.47564 10.5883 7.41615C9.72899 7.33627 8.42375 7.82236 7.94334 8.47161C6.55109 10.3582 5.78971 12.5388 5.74076 14.1891Z" fill="white"/>
<path id="Vector_5" d="M24.8853 11.2919C27.8347 11.2919 30.6519 11.2732 33.469 11.3242C33.7192 11.3293 34.1543 11.7848 34.1506 12.0262C34.147 12.2675 33.7047 12.706 33.4473 12.7111C30.6718 12.7604 27.8964 12.7417 24.9795 12.7417C24.9487 12.259 24.9215 11.8545 24.8853 11.2919Z" fill="white"/>
</g>
</svg>
