<svg width="36" height="36" viewBox="0 0 36 36" fill="none" xmlns="http://www.w3.org/2000/svg">
<g id="facebook">
<rect width="36" height="36" rx="18" fill="white" fill-opacity="0.5"/>
<path id="Vector" d="M26.5689 8.27494C26.1939 7.95694 25.6049 7.91144 24.9959 8.15594H24.9949C24.3544 8.41294 6.8644 15.9149 6.1524 16.2214C6.0229 16.2664 4.8919 16.6884 5.0084 17.6284C5.1124 18.4759 6.0214 18.8269 6.1324 18.8674L10.5789 20.3899C10.8739 21.3719 11.9614 24.9949 12.2019 25.7689C12.3519 26.2514 12.5964 26.8854 13.0249 27.0159C13.4009 27.1609 13.7749 27.0284 14.0169 26.8384L16.7354 24.3169L21.1239 27.7394L21.2284 27.8019C21.5264 27.9339 21.8119 27.9999 22.0844 27.9999C22.2949 27.9999 22.4969 27.9604 22.6899 27.8814C23.3474 27.6114 23.6104 26.9849 23.6379 26.9139L26.9159 9.87544C27.1159 8.96544 26.8379 8.50244 26.5689 8.27494ZM14.5004 20.9989L13.0004 24.9989L11.5004 19.9989L23.0004 11.4989L14.5004 20.9989Z" fill="white"/>
</g>
</svg>
